<svg xmlns="http://www.w3.org/2000/svg" xmlns:xlink="http://www.w3.org/1999/xlink" width="500" zoomAndPan="magnify" viewBox="0 0 375 374.999991" height="500" preserveAspectRatio="xMidYMid meet" version="1.0"><defs><clipPath id="id1"><path d="M 112 5.304688 L 260 5.304688 L 260 297 L 112 297 Z M 112 5.304688 " clip-rule="nonzero"/></clipPath><clipPath id="id2"><path d="M 260.851562 9.003906 L 300.183594 9.003906 L 300.183594 48.335938 L 260.851562 48.335938 Z M 260.851562 9.003906 " clip-rule="nonzero"/></clipPath><clipPath id="id3"><path d="M 275 10 L 300.183594 10 L 300.183594 34 L 275 34 Z M 275 10 " clip-rule="nonzero"/></clipPath><clipPath id="id4"><path d="M 268 9.003906 L 278 9.003906 L 278 16 L 268 16 Z M 268 9.003906 " clip-rule="nonzero"/></clipPath><clipPath id="id5"><path d="M 260.851562 15 L 267 15 L 267 28 L 260.851562 28 Z M 260.851562 15 " clip-rule="nonzero"/></clipPath></defs><rect x="-37.5" width="450" fill="#ffffff" y="-37.499999" height="449.999989" fill-opacity="1"/><rect x="-37.5" width="450" fill="#ffffff" y="-37.499999" height="449.999989" fill-opacity="1"/><rect x="-37.5" width="450" fill="#ffffff" y="-37.499999" height="449.999989" fill-opacity="1"/><rect x="-37.5" width="450" fill="#ffffff" y="-37.499999" height="449.999989" fill-opacity="1"/><path fill="#1109a4" d="M 325.992188 31.222656 C 319.496094 25.613281 311.207031 22.6875 301.246094 22.453125 C 298.417969 12.8125 289.183594 6.113281 278.773438 6.882812 C 266.789062 7.773438 257.796875 18.222656 258.683594 30.222656 C 258.753906 31.199219 258.894531 32.152344 259.089844 33.085938 C 252.605469 36.042969 245.832031 39.605469 238.78125 43.769531 C 211.65625 59.804688 182.355469 83.59375 153.992188 112.394531 L 153.992188 125.691406 C 192.136719 85.691406 231.203125 56.003906 262.863281 41.539062 C 267.15625 47.363281 274.246094 50.921875 281.988281 50.347656 C 292.351562 49.582031 300.476562 41.65625 301.90625 31.761719 C 309.160156 32.089844 315.273438 34.1875 319.957031 38.234375 C 349.015625 63.324219 312.527344 153.414062 238.464844 239.457031 C 164.40625 325.5 80.808594 374.914062 51.753906 349.820312 C 26.488281 328.003906 50.792969 257.027344 106.261719 182.300781 L 106.261719 166.996094 C 79.292969 201.773438 58.023438 237.09375 45.269531 268.589844 C 37.378906 288.070312 33.109375 305.214844 32.578125 319.554688 C 31.964844 336.230469 36.386719 348.769531 45.71875 356.832031 C 55.058594 364.894531 68.089844 367.425781 84.46875 364.363281 C 98.550781 361.722656 114.851562 354.972656 132.929688 344.289062 C 169.039062 322.941406 209.007812 287.859375 245.464844 245.503906 C 281.925781 203.144531 310.6875 158.386719 326.445312 119.46875 C 334.335938 99.988281 338.605469 82.835938 339.132812 68.503906 C 339.75 51.828125 335.328125 39.285156 325.992188 31.222656 " fill-opacity="1" fill-rule="nonzero"/><g clip-path="url(#id1)"><path fill="#9f0c0c" d="M 224.113281 246.050781 C 227.304688 242.515625 230.476562 238.925781 233.621094 235.273438 C 242.617188 224.824219 251.121094 214.238281 259.050781 203.648438 L 259.050781 97.632812 L 224.113281 76.039062 L 224.113281 168.726562 L 147.597656 168.726562 L 147.597656 5.476562 C 128.304688 5.476562 112.660156 21.144531 112.660156 40.46875 L 112.660156 274.816406 L 147.597656 296.410156 L 147.597656 203.71875 L 224.113281 203.71875 L 224.113281 246.050781 " fill-opacity="1" fill-rule="nonzero"/></g><path fill="#9f0c0c" d="M 250.3125 249.6875 C 241.742188 259.640625 232.980469 269.195312 224.113281 278.277344 L 224.113281 366.972656 C 243.410156 366.972656 259.050781 351.304688 259.050781 331.976562 L 259.050781 239.308594 C 256.191406 242.777344 253.277344 246.238281 250.3125 249.6875 " fill-opacity="1" fill-rule="nonzero"/><g clip-path="url(#id2)"><path fill="#1109a4" d="M 300.1875 28.667969 C 300.1875 28.714844 300.1875 28.765625 300.183594 28.8125 C 300.179688 29.78125 300.101562 30.734375 299.957031 31.667969 C 299.273438 36.167969 297.0625 40.160156 293.875 43.109375 L 293.871094 43.109375 C 290.363281 46.355469 285.667969 48.339844 280.515625 48.339844 C 277.996094 48.339844 275.585938 47.867188 273.371094 47 C 273.097656 46.894531 272.828125 46.78125 272.558594 46.660156 C 268.816406 45.003906 265.691406 42.214844 263.613281 38.726562 C 262.570312 36.972656 261.785156 35.039062 261.324219 32.988281 C 261.011719 31.597656 260.847656 30.152344 260.847656 28.667969 C 260.847656 28.148438 260.867188 27.632812 260.914062 27.125 C 261.242188 22.8125 262.96875 18.890625 265.640625 15.808594 C 266.667969 14.621094 267.835938 13.554688 269.117188 12.644531 L 269.121094 12.640625 C 269.464844 12.394531 269.824219 12.15625 270.1875 11.933594 C 272.421875 10.550781 274.953125 9.601562 277.664062 9.207031 C 278.59375 9.070312 279.546875 9 280.515625 9 C 282.828125 9 285.046875 9.402344 287.105469 10.132812 C 290.429688 11.3125 293.339844 13.363281 295.566406 16.007812 C 298.453125 19.429688 300.1875 23.847656 300.1875 28.667969 " fill-opacity="1" fill-rule="nonzero"/></g><path fill="#70c573" d="M 283.144531 44.0625 C 283.144531 44.0625 282.074219 42.570312 282.191406 40.007812 C 282.3125 37.445312 282.074219 37.019531 280.410156 36.484375 C 278.742188 35.953125 277.078125 34.992188 276.839844 33.710938 C 276.601562 32.429688 278.03125 29.441406 278.03125 29.441406 C 278.03125 29.441406 279.933594 28.164062 281.597656 28.375 C 283.261719 28.589844 286.117188 28.589844 287.425781 29.761719 C 288.734375 30.9375 289.566406 33.605469 290.160156 33.710938 C 290.757812 33.816406 289.328125 38.40625 289.089844 39.152344 C 288.855469 39.902344 288.140625 42.890625 287.546875 44.0625 C 286.953125 45.238281 286.355469 46.304688 285.878906 46.304688 C 285.40625 46.304688 283.261719 46.515625 283.144531 44.0625 " fill-opacity="1" fill-rule="nonzero"/><path fill="#70c573" d="M 273.902344 43.820312 C 273.800781 44.324219 273.613281 45.664062 273.371094 47 C 273.097656 46.894531 272.828125 46.78125 272.558594 46.660156 C 268.816406 45.003906 265.691406 42.214844 263.613281 38.726562 C 262.570312 36.972656 261.785156 35.039062 261.324219 32.988281 C 262.050781 32.601562 262.960938 32.257812 263.851562 32.273438 C 265.808594 32.308594 266.054688 32.792969 267.722656 33.984375 C 269.382812 35.183594 270.6875 38.167969 271.390625 38.21875 C 272.09375 38.265625 274.082031 42.921875 273.902344 43.820312 " fill-opacity="1" fill-rule="nonzero"/><g clip-path="url(#id3)"><path fill="#70c573" d="M 300.1875 28.667969 C 300.1875 28.714844 300.1875 28.765625 300.183594 28.8125 C 300.179688 29.78125 300.101562 30.734375 299.957031 31.667969 C 299.074219 30.371094 298.121094 28.421875 297.636719 28.082031 C 296.886719 27.554688 294.144531 27.238281 295.140625 28.609375 C 296.140625 29.980469 296.5625 29.980469 296.5625 29.980469 C 296.5625 29.980469 294.644531 33.84375 293.273438 33.46875 C 291.902344 33.097656 289.160156 28.082031 289.160156 28.082031 C 287.539062 26.808594 290.65625 25.867188 290.65625 25.867188 C 290.65625 25.867188 291.652344 24.996094 290.15625 24 C 288.660156 23 287.539062 25.117188 286.542969 24.871094 C 285.546875 24.621094 285.296875 25.617188 284.984375 26.613281 C 284.671875 27.609375 283.761719 28.207031 283.550781 26.613281 C 283.335938 25.019531 281.058594 25.992188 280.3125 25.992188 C 279.5625 25.992188 278.070312 28.609375 276.695312 28.609375 C 275.324219 28.609375 275.324219 26.742188 275.574219 25.867188 C 275.824219 24.996094 277.941406 24.121094 279.9375 24 C 281.929688 23.871094 280.0625 22.128906 280.683594 21.789062 C 281.308594 21.449219 283.175781 22.003906 284.984375 22.753906 C 286.789062 23.5 288.660156 21.753906 290.28125 21.789062 C 291.902344 21.824219 286.792969 20.507812 288.410156 19.261719 C 290.035156 18.015625 286.542969 16.894531 286.667969 15.523438 C 286.792969 14.152344 285.667969 12.53125 285.667969 11.035156 C 285.667969 10.558594 286.199219 10.25 287.105469 10.132812 C 290.429688 11.3125 293.339844 13.363281 295.566406 16.007812 C 298.453125 19.429688 300.1875 23.847656 300.1875 28.667969 " fill-opacity="1" fill-rule="nonzero"/></g><path fill="#70c573" d="M 272.34375 22.019531 C 272.34375 22.019531 273.066406 22.871094 273.621094 22.019531 C 274.179688 21.164062 274.257812 20.484375 273.910156 20.421875 C 273.558594 20.359375 271.488281 21.664062 272.34375 22.019531 " fill-opacity="1" fill-rule="nonzero"/><path fill="#70c573" d="M 268.132812 22.019531 C 268.132812 22.019531 269.621094 21.640625 269.949219 20.898438 C 270.28125 20.152344 272.179688 20.484375 272.671875 19.742188 C 273.167969 19 274.449219 18.734375 274.757812 18.039062 C 275.066406 17.347656 275.402344 16.277344 274.121094 16.191406 C 272.839844 16.109375 271.574219 15.53125 271.589844 16.191406 C 271.601562 16.851562 271.269531 16.6875 270.113281 17.101562 C 268.960938 17.511719 267.722656 16.917969 267.722656 18.039062 C 267.722656 19.164062 268.050781 20.421875 268.050781 20.421875 C 268.050781 20.421875 267.390625 21.328125 268.132812 22.019531 " fill-opacity="1" fill-rule="nonzero"/><g clip-path="url(#id4)"><path fill="#70c573" d="M 277.664062 9.207031 C 277.664062 9.207031 275.453125 12.160156 275.042969 12.238281 C 274.628906 12.316406 273.363281 13.183594 273.128906 14.054688 C 272.894531 14.921875 271.238281 15.472656 269.976562 14.921875 C 268.710938 14.367188 268.421875 13.757812 269.117188 12.644531 L 269.121094 12.640625 C 269.464844 12.394531 269.824219 12.15625 270.1875 11.933594 C 272.421875 10.550781 274.953125 9.601562 277.664062 9.207031 " fill-opacity="1" fill-rule="nonzero"/></g><g clip-path="url(#id5)"><path fill="#70c573" d="M 265.265625 20.8125 C 265.058594 21.441406 265.109375 22.179688 264.425781 22.398438 C 263.742188 22.621094 264.003906 23.441406 263.53125 24.492188 C 263.105469 25.4375 261.277344 26.851562 260.914062 27.125 C 261.242188 22.8125 262.96875 18.890625 265.640625 15.808594 C 265.917969 16.648438 265.808594 18.039062 266.054688 18.496094 C 266.425781 19.179688 265.476562 20.179688 265.265625 20.8125 " fill-opacity="1" fill-rule="nonzero"/></g></svg>